<svg width="25" height="24" viewBox="0 0 25 24" fill="none" xmlns="http://www.w3.org/2000/svg">
<g opacity="0.4" clip-path="url(#clip0_42_13989)">
<path d="M3.46574 12.1328C3.46571 12.6851 3.91344 13.1329 4.46574 13.1329H5.52823C6.0805 13.1329 6.52821 12.6852 6.52823 12.1329L6.52824 11.9631C6.52826 11.4108 6.08054 10.963 5.52824 10.963H4.46574C3.91347 10.963 3.46576 11.4107 3.46574 11.963L3.46574 12.1328ZM3.46578 17.1301C3.46578 17.6824 3.91349 18.1301 4.46578 18.1301H5.52828C6.08056 18.1301 6.52828 17.6824 6.52828 17.1301V16.8507C6.52828 16.2984 6.08056 15.8507 5.52828 15.8507H4.46578C3.91349 15.8507 3.46578 16.2984 3.46578 16.8507V17.1301ZM3.46578 7.06987C3.46578 7.62215 3.91349 8.06987 4.46578 8.06987H5.52828C6.08056 8.06987 6.52828 7.62215 6.52828 7.06987V6.98767C6.52828 6.43539 6.08056 5.98767 5.52828 5.98767H4.46578C3.91349 5.98767 3.46578 6.43539 3.46578 6.98767V7.06987ZM8.05851 12.1328C8.05849 12.6851 8.50621 13.1329 9.05851 13.1329H20.0585C20.6108 13.1329 21.0585 12.6852 21.0585 12.1329L21.0585 11.9631C21.0585 11.4108 20.6108 10.963 20.0585 10.963H9.05852C8.50625 10.963 8.05854 11.4107 8.05852 11.963L8.05851 12.1328ZM8.05855 17.1301C8.05855 17.6824 8.50627 18.1301 9.05855 18.1301H20.0585C20.6108 18.1301 21.0585 17.6824 21.0585 17.1301L21.0586 16.8507C21.0586 16.2984 20.6108 15.8507 20.0586 15.8507H9.05855C8.50627 15.8507 8.05855 16.2984 8.05855 16.8507V17.1301ZM9.05855 5.98767C8.50627 5.98767 8.05855 6.43539 8.05855 6.98767L8.05855 7.06987C8.05855 7.62215 8.50627 8.06987 9.05855 8.06987H20.0586C20.6108 8.06987 21.0586 7.62216 21.0586 7.06987L21.0586 6.98767C21.0586 6.43539 20.6108 5.98767 20.0586 5.98767H9.05855Z" fill="white"/>
</g>
<defs>
<clipPath id="clip0_42_13989">
<rect width="24" height="24" fill="white" transform="translate(0.0585938)"/>
</clipPath>
</defs>
</svg>
